<svg width="1650" height="1024" viewBox="0 0 1650 1024" fill="none" xmlns="http://www.w3.org/2000/svg">
<g clip-path="url(#clip0_1_3)">
<rect width="1650" height="1024" fill="#131313"/>
<line y1="852.85" x2="1650" y2="852.85" stroke="#EF1A2D" stroke-width="0.3"/>
<line y1="682.25" x2="1650" y2="682.25" stroke="#EF1A2D" stroke-width="0.3"/>
<line y1="511.05" x2="1650" y2="511.05" stroke="#EF1A2D" stroke-width="0.3"/>
<line y1="341.05" x2="1650" y2="341.05" stroke="#EF1A2D" stroke-width="0.3"/>
<line y1="170.45" x2="1650" y2="170.45" stroke="#EF1A2D" stroke-width="0.3"/>
<line x1="1500.15" x2="1500.15" y2="1024" stroke="#EF1A2D" stroke-width="0.3"/>
<line x1="1349.85" y1="1023.98" x2="1349.85" y2="-0.022644" stroke="#EF1A2D" stroke-width="0.3"/>
<line x1="1200.15" x2="1200.15" y2="1024" stroke="#EF1A2D" stroke-width="0.3"/>
<line x1="1050.15" x2="1050.15" y2="1024" stroke="#EF1A2D" stroke-width="0.3"/>
<line x1="900.15" x2="900.15" y2="1024" stroke="#EF1A2D" stroke-width="0.3"/>
<line x1="750.15" x2="750.15" y2="1024" stroke="#EF1A2D" stroke-width="0.3"/>
<line x1="600.15" x2="600.15" y2="1024" stroke="#EF1A2D" stroke-width="0.3"/>
<line x1="300.15" x2="300.15" y2="1024" stroke="#EF1A2D" stroke-width="0.3"/>
<line x1="450.15" x2="450.15" y2="1024" stroke="#EF1A2D" stroke-width="0.3"/>
<line x1="150.15" x2="150.15" y2="1024" stroke="#EF1A2D" stroke-width="0.3"/>
<circle cx="300" cy="170" r="7.25" stroke="#65151D" stroke-width="1.5"/>
<circle cx="300" cy="170" r="4" fill="#65151D"/>
<circle cx="1200" cy="171" r="5" fill="#65151D"/>
<circle cx="900" cy="511" r="5" fill="#65151D"/>
<circle cx="300" cy="682" r="7.25" stroke="#65151D" stroke-width="1.5"/>
<circle cx="300" cy="682" r="4" fill="#65151D"/>
<circle cx="1350" cy="853" r="7.25" stroke="#65151D" stroke-width="1.5"/>
<circle cx="1350" cy="853" r="4" fill="#65151D"/>
<circle cx="450" cy="1024" r="144.4" stroke="#0600EF" stroke-width="1.2"/>
<line x1="316" y1="1022" x2="386" y2="1022" stroke="#0600EF" stroke-width="4"/>
<line x1="515" y1="1022" x2="585" y2="1022" stroke="#0600EF" stroke-width="4"/>
<line x1="450.477" y1="949.961" x2="450.477" y2="889.961" stroke="#0600EF" stroke-width="4"/>
<line x1="331.191" y1="973.538" x2="349.669" y2="981.192" stroke="#0600EF"/>
<line x1="361.354" y1="934.646" x2="375.496" y2="948.789" stroke="#0600EF"/>
<line x1="406.462" y1="905.809" x2="414.116" y2="924.286" stroke="#0600EF"/>
<line x1="569.596" y1="974.462" x2="551.118" y2="982.116" stroke="#0600EF"/>
<line x1="539.558" y1="935.354" x2="525.416" y2="949.496" stroke="#0600EF"/>
<line x1="500.243" y1="906.191" x2="492.59" y2="924.669" stroke="#0600EF"/>
</g>
<defs>
<clipPath id="clip0_1_3">
<rect width="1650" height="1024" fill="white"/>
</clipPath>
</defs>
</svg>
